<svg height="40" viewBox="0 0 106 40" width="106" xmlns="http://www.w3.org/2000/svg"><g fill="#cf1430" transform="translate(.5)"><path d="m10.845.062 2.392 6.113-13.179 33.199h5.228l3.739-9.42h13.518l3.687 9.42h10.633l-15.385-39.312zm-.026 25.373 5.013-12.629 4.942 12.629z"/><path d="m51.357 21.797h12.431l1.824-4.594h-14.255v-12.408h15.591l1.879-4.733h-27.425v39.312h25.952l1.879-4.734h-17.876z"/><path d="m89.51 21.797h6.561v13.303c-.785.215-1.684.342-2.636.341-8.845 0-11.433-8.198-11.433-15.45 0-6.958 2.221-15.196 10.771-15.196h9.113l1.878-4.733h-12.06c-11.711 0-19.977 8.093-19.977 19.929 0 11.69 7.939 19.929 20.25 19.929 6.133 0 10.109-1.169 13.381-2.311v-20.406h-14.024z"/></g></svg>