<?xml version="1.0" encoding="UTF-8"?>
<svg width="72px" height="72px" viewBox="0 0 72 72" version="1.1" xmlns="http://www.w3.org/2000/svg" xmlns:xlink="http://www.w3.org/1999/xlink">
    <title>115FA639-8F13-4731-9524-85E5D29AF294</title>
    <g id="final" stroke="none" stroke-width="1" fill="none" fill-rule="evenodd">
        <g id="4-zanussi-desktop" transform="translate(-684.000000, -284.000000)" fill="#000000" fill-rule="nonzero">
            <g id="Overlay" transform="translate(-1.000000, 0.000000)">
                <g id="Group-4" transform="translate(457.000000, 228.000000)">
                    <g id="unsub-success-elux" transform="translate(228.000000, 56.000000)">
                        <path d="M57.263843,25.4002068 C57.6810214,24.793399 58.4652436,24.589333 59.1138157,24.8811003 L59.3496898,25.0139371 L71.3496367,33.2639371 C71.6752604,33.4878044 71.8960167,33.8284394 71.9712942,34.2086386 L71.9998406,34.5 L71.9998406,66 C71.9998406,69.1618623 69.5510505,71.7543842 66.447493,71.9835352 L65.9998672,72 L6.00013284,72 C2.83828459,72 0.24577415,69.5511991 0.0166241274,66.4476278 L0.000159409652,66 L0.000159409652,34.5 C0.000159409652,34.104844 0.155790943,33.7299512 0.426442719,33.4525252 L0.650363296,33.2639371 L12.6503102,25.0139371 C13.3329658,24.5446093 14.2668313,24.7175481 14.736157,25.4002068 C15.1533355,26.0070145 15.0630463,26.8123098 14.5583807,27.3133968 L14.3498891,27.4860629 L3.00014613,35.289 L3.00014613,66 C3.00014613,67.5373177 4.15936642,68.8063515 5.65050777,68.9797986 L6.00013284,69 L65.9998672,69 C67.537178,69 68.8062062,67.8407746 68.9796526,66.3496266 L68.9998539,66 L68.9998539,35.292 L57.6501109,27.4860629 C57.0433059,27.0688826 56.8392407,26.2846569 57.1310068,25.6360819 L57.263843,25.4002068 Z" id="Stroke-2215"></path>
                        <path d="M46.4999535,48 C46.7554078,48 47.0051575,48.0652056 47.2262719,48.1875732 L47.4369919,48.3286968 L62.4369255,60.3286968 C63.0838155,60.8462111 63.1886971,61.7901497 62.6711851,62.4370426 C62.2111744,63.0120585 61.4142374,63.1588189 60.7884879,62.8208665 L60.5628487,62.6713032 L45.9719558,51 L26.0250442,51 L11.4371513,62.6713032 C10.862138,63.1313159 10.0524229,63.0995587 9.51611991,62.6324888 L9.32881489,62.4370426 C8.86880419,61.8620267 8.90056131,61.052308 9.36762913,60.5160026 L9.56307449,60.3286968 L24.5630081,48.3286968 C24.7624844,48.169115 24.9982396,48.064014 25.247343,48.0214373 L25.5000465,48 L46.4999535,48 Z" id="Stroke-2216"></path>
                        <path d="M69.6678006,33.2519246 C70.3570906,32.7923959 71.2883905,32.9786567 71.7479171,33.6679497 C72.1563853,34.2806546 72.0546023,35.0845781 71.5428306,35.5784052 L71.3318938,35.7480754 L53.3319735,47.7480754 C52.6426836,48.2076041 51.7113837,48.0213433 51.251857,47.3320503 C50.8433889,46.7193454 50.9451719,45.9154219 51.4569436,45.4215948 L51.6678803,45.2519246 L69.6678006,33.2519246 Z" id="Stroke-2217"></path>
                        <path d="M0.252082853,33.6679497 C0.660550989,33.0552448 1.44177823,32.8399974 2.09445185,33.1224706 L2.33219938,33.2519246 L20.3321197,45.2519246 C21.0214097,45.7114532 21.2076696,46.6427573 20.748143,47.3320503 C20.3396748,47.9447552 19.5584476,48.1600026 18.905774,47.8775294 L18.6680265,47.7480754 L0.668106158,35.7480754 C-0.0211838232,35.2885468 -0.207443801,34.3572427 0.252082853,33.6679497 Z" id="Stroke-2218"></path>
                        <path d="M58.4999004,0 C59.2362768,0 59.8487195,0.530625482 59.9757268,1.2303731 L59.9998937,1.5 L59.9998937,42.501 C59.9998937,43.3294271 59.3283238,44.001 58.4999004,44.001 C57.763524,44.001 57.1510812,43.4703745 57.0240739,42.7706269 L56.999907,42.501 L56.999907,3 L15.000093,3 L15.000093,42.501 C15.000093,43.2373797 14.4694699,43.8498251 13.7697253,43.976833 L13.5001063,44.001 C12.7637232,44.001 12.1512805,43.4703745 12.0242732,42.7706269 L12.0001063,42.501 L12.0001063,1.5 C12.0001063,0.763620334 12.5307294,0.151174889 13.2304739,0.0241670082 L13.5001063,0 L58.4999004,0 Z" id="Stroke-2219"></path>
                        <path d="M21.0000664,20.034 C21.0000664,21.7464245 21.5896522,23.5613594 22.6721996,25.4752979 C23.9278601,27.6952997 25.823403,30.010456 28.1912058,32.3701134 C29.7058417,33.879539 31.3238515,35.3175964 32.941656,36.6392288 L34.0668299,37.5399234 L35.1178746,38.3381974 C35.6437939,38.7206009 36.3562061,38.7206009 36.8821254,38.3381974 L37.9331701,37.5399234 L39.058344,36.6392288 C40.6761485,35.3175964 42.2941583,33.879539 43.8087942,32.3701134 C46.176597,30.010456 48.0721399,27.6952997 49.3278004,25.4752979 C50.4103478,23.5613594 50.9999336,21.7464245 50.9999336,20.034 L50.9874097,19.4800173 C50.5804723,10.5640794 40.3634539,8.15820587 36,15.234 C31.5475996,8.01397052 21.0000664,10.666224 21.0000664,20.034 Z M47.9999469,20.034 C47.9999469,21.1597168 47.5652343,22.497902 46.7165682,23.9983396 C45.6162383,25.9437177 43.882188,28.0616319 41.691146,30.2451366 C40.25267,31.6786642 38.7066313,33.0527551 37.1603873,34.3159275 L36,35.241 L34.8396127,34.3159275 C33.2933687,33.0527551 31.74733,31.6786642 30.308854,30.2451366 C28.117812,28.0616319 26.3837617,25.9437177 25.2834318,23.9983396 C24.4347657,22.497902 24.0000531,21.1597168 24.0000531,20.034 C24.0000531,12.8490574 32.6359795,11.6194193 34.5415735,19.5446755 C34.9100404,21.0771082 37.0899596,21.0771082 37.4584265,19.5446755 C39.3640205,11.6194193 47.9999469,12.8490574 47.9999469,20.034 Z" id="Stroke-2220"></path>
                    </g>
                </g>
            </g>
        </g>
    </g>
</svg>